<svg width="40" height="40" viewBox="0 0 40 40" fill="none" xmlns="http://www.w3.org/2000/svg">
<path d="M3.75 4.64778V35.3509C3.75021 35.4175 3.77007 35.4826 3.80711 35.538C3.84415 35.5933 3.89671 35.6365 3.9582 35.6621C4.01969 35.6878 4.08738 35.6946 4.15277 35.6819C4.21816 35.6692 4.27835 35.6375 4.32578 35.5908L20.3125 20.0001L4.32578 4.40794C4.27835 4.36117 4.21816 4.32945 4.15277 4.31675C4.08738 4.30405 4.01969 4.31094 3.9582 4.33656C3.89671 4.36217 3.84415 4.40537 3.80711 4.46074C3.77007 4.5161 3.75021 4.58117 3.75 4.64778Z" fill="white"/>
<path d="M26.5556 13.094L6.5103 2.05023L6.4978 2.0432C6.15249 1.8557 5.82436 2.32289 6.10718 2.59476L21.8205 17.6198L26.5556 13.094Z" fill="white"/>
<path d="M6.56854 36.9055C6.28417 37.1773 6.61229 37.6445 6.95917 37.457L6.97167 37.45L27.0154 26.4063L22.2803 21.8789L6.56854 36.9055Z" fill="white"/>
<path d="M35.108 18.0467L29.5104 14.9639L24.2471 19.9998L29.5104 25.0334L35.108 21.9529C36.6307 21.1115 36.6307 18.8881 35.108 18.0467Z" fill="white"/>
</svg>
