<svg width="1060" height="354" viewBox="0 0 1060 354" fill="none" xmlns="http://www.w3.org/2000/svg">
<g filter="url(#filter0_b_429_355)">
<rect width="160" height="160" rx="34" fill="white" fill-opacity="0.12"/>
</g>
<g clip-path="url(#clip0_429_355)">
<path d="M60.7988 55.0995L79.9998 44L99.2007 55.0995L92.0007 58.999L79.9998 52.0986L67.6993 58.999L60.7988 55.0995ZM98.8983 68.9005L91.9979 65.001L79.9998 71.9014L67.6993 65.001L60.7988 68.9005V77.0019L72.7998 83.9024V98.0029L79.7003 102.202L86.6007 98.0029V84.2019L98.6017 77.3014V68.9005H98.8983ZM98.8983 91.0995V83.001L92.0007 87.2V94.999L98.8983 91.0995ZM103.999 93.801L91.9979 100.701V108.8L111.199 97.7005V75.5014L103.999 80V93.801ZM97.1012 62L104.002 66.199V74.3005L110.902 70.1014V62L104.002 57.801L97.1012 62ZM72.7998 103.7V111.798L79.7003 115.997L86.6007 111.798V103.7L79.7003 107.899L72.7998 103.7ZM60.7988 91.0995L67.6993 94.999V86.9005L60.7988 82.7014V91.0995ZM72.7998 62L79.7003 66.199L86.9002 62L79.9998 57.801L72.7998 62ZM55.6983 66.199L62.8983 62L55.6983 57.801L48.8007 62V70.0986L55.7012 74.2976V66.199H55.6983ZM55.6983 80L48.7979 75.801V98L67.9988 109.1V101.001L55.9979 94.1005V80H55.6983Z" fill="#F0B90B"/>
</g>
<g filter="url(#filter1_b_429_355)">
<rect x="180" width="160" height="160" rx="34" fill="white" fill-opacity="0.12"/>
</g>
<g clip-path="url(#clip1_429_355)">
<path d="M235.695 95.0698C236.13 94.6353 236.727 94.3818 237.361 94.3818H294.823C295.874 94.3818 296.399 95.6491 295.656 96.3914L284.305 107.743C283.87 108.177 283.273 108.431 282.639 108.431H225.177C224.127 108.431 223.602 107.163 224.344 106.421L235.695 95.0698Z" fill="url(#paint0_linear_429_355)"/>
<path d="M235.695 52.688C236.148 52.2535 236.746 52 237.361 52H294.823C295.874 52 296.399 53.2673 295.656 54.0096L284.305 65.3608C283.87 65.7953 283.273 66.0488 282.639 66.0488H225.177C224.127 66.0488 223.602 64.7815 224.344 64.0392L235.695 52.688Z" fill="url(#paint1_linear_429_355)"/>
<path d="M284.305 73.7431C283.87 73.3086 283.273 73.0552 282.639 73.0552H225.177C224.127 73.0552 223.602 74.3225 224.344 75.0647L235.695 86.416C236.13 86.8505 236.727 87.104 237.361 87.104H294.823C295.874 87.104 296.399 85.8367 295.656 85.0944L284.305 73.7431Z" fill="url(#paint2_linear_429_355)"/>
</g>
<g filter="url(#filter2_b_429_355)">
<rect x="360" width="160" height="160" rx="34" fill="white" fill-opacity="0.12"/>
</g>
<path d="M424.354 49.004C441.567 48.9987 458.781 48.9987 475.996 49.004C476.001 54.5574 476.001 60.11 475.996 65.6616C458.783 65.6668 441.569 65.6668 424.354 65.6616C424.349 60.1081 424.349 54.5555 424.354 49.004Z" fill="#02A6C2"/>
<path d="M404.022 71.9288C409.575 71.9 415.129 71.9 420.684 71.9288C420.713 77.4717 420.713 83.0157 420.684 88.5605C415.129 88.589 409.575 88.5895 404.022 88.562C403.993 83.0181 403.993 77.4737 404.022 71.9288Z" fill="#5FCADE"/>
<path d="M424.368 71.9285C436.791 71.9021 449.215 71.9021 461.637 71.9285C461.663 77.4714 461.663 83.0153 461.637 88.5602C449.213 88.5861 436.79 88.5861 424.368 88.5602C424.342 83.017 424.342 77.4731 424.368 71.9285Z" fill="#5FCADE"/>
<path d="M424.383 94.8581C429.927 94.798 435.47 94.798 441.012 94.8581C441.069 100.388 441.07 105.921 441.014 111.456C435.47 111.511 429.927 111.51 424.386 111.453C424.328 105.924 424.327 100.392 424.383 94.8581Z" fill="#ABEBF4"/>
<g filter="url(#filter3_b_429_355)">
<rect x="540" width="160" height="160" rx="34" fill="white" fill-opacity="0.12"/>
</g>
<path d="M642.219 56.3115H597.734V96.7427H642.219V56.3115Z" fill="white"/>
<path fill-rule="evenodd" clip-rule="evenodd" d="M656 79.9761C656 99.8453 639.882 115.952 620 115.952C600.118 115.952 584 99.8453 584 79.9761C584 60.107 600.118 44 620 44C639.882 44 656 60.107 656 79.9761ZM609.799 94.2927H602.812C601.344 94.2927 600.619 94.2927 600.177 94.0101C599.699 93.7006 599.407 93.188 599.372 92.6223C599.345 92.1011 599.708 91.4645 600.433 90.1919L617.684 59.8053C618.418 58.5149 618.789 57.8698 619.258 57.6311C619.762 57.3749 620.363 57.3749 620.868 57.6311C621.336 57.8698 621.708 58.5149 622.442 59.8053L625.988 65.9918L626.006 66.0234C626.799 67.4077 627.201 68.1097 627.377 68.8464C627.571 69.6507 627.571 70.4991 627.377 71.3034C627.2 72.0458 626.802 72.7528 625.997 74.158L616.936 90.1654L616.912 90.2064C616.114 91.6021 615.71 92.3095 615.149 92.8431C614.539 93.4266 613.805 93.8506 613 94.0896C612.266 94.2927 611.444 94.2927 609.799 94.2927ZM627.442 94.2927H637.453C638.93 94.2927 639.673 94.2927 640.115 94.0015C640.593 93.692 640.893 93.1703 640.92 92.6051C640.946 92.1006 640.591 91.4889 639.896 90.2902C639.872 90.2494 639.848 90.2078 639.823 90.1656L634.809 81.5928L634.752 81.4963C634.047 80.3055 633.692 79.7042 633.235 79.4717C632.731 79.2154 632.138 79.2154 631.634 79.4717C631.174 79.7103 630.803 80.3378 630.069 81.6016L625.072 90.1744L625.055 90.2039C624.323 91.4657 623.958 92.0963 623.984 92.6137C624.02 93.1794 624.311 93.7006 624.789 94.0101C625.222 94.2927 625.965 94.2927 627.442 94.2927Z" fill="#E84142"/>
<g filter="url(#filter4_b_429_355)">
<rect x="900" width="160" height="160" rx="34" fill="white" fill-opacity="0.12"/>
</g>
<path d="M980 107.091C967.637 107.091 957.597 97.0516 957.597 84.6883C957.597 72.6691 977.877 51.442 978.738 50.5528L979.799 49.4341L980.889 50.5241C981.778 51.4134 1002.4 72.6405 1002.4 84.6596C1002.4 97.0516 992.363 107.091 980 107.091ZM979.828 53.7656C978.049 55.6875 974.32 59.8468 970.62 64.7233C964.051 73.3863 960.58 80.2707 960.58 84.6596C960.58 95.3592 969.3 104.08 980 104.08C990.699 104.08 999.42 95.3592 999.42 84.6596C999.42 80.2707 995.892 73.3863 989.208 64.7233C985.45 59.8755 981.635 55.6875 979.828 53.7656Z" fill="url(#paint3_linear_429_355)"/>
<path d="M980 114.263C963.678 114.263 950.425 100.982 950.425 84.6883C950.425 68.7393 972.685 46.4796 973.632 45.5616C974.205 44.9879 975.181 44.9879 975.754 45.5616C976.328 46.1353 976.328 47.1106 975.754 47.6843C975.525 47.9138 953.437 70.0015 953.437 84.6883C953.437 99.3465 965.37 111.28 980.028 111.28C994.687 111.28 1006.62 99.3465 1006.62 84.6883C1006.62 78.6644 1002.72 70.3457 995.318 60.564C989.638 53.0772 983.93 47.3975 983.872 47.3401C983.27 46.7664 983.27 45.8198 983.872 45.2174C984.446 44.615 985.393 44.615 985.995 45.2174C986.97 46.164 1009.63 68.7106 1009.63 84.6883C1009.57 100.982 996.322 114.263 980 114.263Z" fill="url(#paint4_linear_429_355)"/>
<path d="M980 121.434C960.15 121.434 944 105.284 944 85.4339C944 77.2299 948.131 67.1327 956.249 55.4578C962.244 46.8523 968.124 40.7136 968.382 40.4554C968.956 39.8531 969.903 39.8531 970.505 40.4268C971.108 41.0005 971.108 41.9471 970.534 42.5495C970.476 42.6068 964.539 48.8029 958.687 57.2076C951.028 68.1941 946.983 77.9471 946.983 85.4339C946.983 103.62 961.785 118.451 980 118.451C998.215 118.451 1013.02 103.649 1013.02 85.4339C1013.02 77.9471 1008.94 68.1941 1001.23 57.2076C995.318 48.8029 989.323 42.6068 989.265 42.5495C988.692 41.9471 988.692 41.0005 989.294 40.4268C989.896 39.8531 990.843 39.8531 991.417 40.4554C992.421 41.4881 1016 65.9853 1016 85.4339C1016 105.284 999.85 121.434 980 121.434Z" fill="url(#paint5_linear_429_355)"/>
<g filter="url(#filter5_b_429_355)">
<rect x="720" width="160" height="160" rx="34" fill="white" fill-opacity="0.12"/>
</g>
<path fill-rule="evenodd" clip-rule="evenodd" d="M784.447 67.7074C784.313 68.8296 784.179 70.0052 784.099 71.1809C782.069 72.597 780.171 74.0398 778.408 75.4826C777.5 76.2307 776.618 76.9789 775.79 77.7537C769.27 71.1007 766.491 65.1157 768.282 62.043C769.858 59.3177 775.148 58.5429 782.576 60.0124C782.87 58.7299 783.164 57.5008 783.511 56.3252C774.507 54.5083 767.64 55.7107 765.049 60.1727C764.354 61.3483 764.007 62.6843 764.007 64.1004V64.234C764.06 70.5663 770.286 79.0362 780.679 87.0251C781.748 87.8534 782.897 88.6817 784.072 89.51C784.286 92.1017 784.607 94.5866 785.008 96.9111C785.195 97.9531 785.382 98.9685 785.595 99.957C776.591 102.282 770.045 101.694 768.255 98.6211C766.678 95.8958 768.656 90.8994 773.625 85.2083L771.034 82.4829C764.888 89.4298 762.43 96.0294 765.022 100.518C766.839 103.671 770.766 105.167 776.057 105.167C781.374 105.167 788.054 103.644 795.375 100.678C795.562 100.598 795.749 100.518 795.962 100.438C797.245 99.9036 798.527 99.3425 799.837 98.728C799.89 98.7013 799.943 98.6745 799.997 98.6478C802.321 99.7166 804.619 100.678 806.89 101.507C807.879 101.881 808.868 102.201 809.829 102.522C807.345 111.5 803.55 116.897 799.997 116.897C796.844 116.897 793.504 112.675 791.073 105.461C789.844 105.889 788.641 106.263 787.439 106.583C790.378 115.294 794.84 120.637 799.997 120.637C807.505 120.637 813.49 109.362 815.547 92.93C815.681 91.8078 815.788 90.6322 815.895 89.4833C818.005 88.0137 819.983 86.4908 821.826 84.9411C821.933 84.8609 822.04 84.7808 822.147 84.6739C822.841 84.0861 823.509 83.4983 824.177 82.8837C830.724 89.51 833.502 95.5217 831.712 98.5944C830.243 101.133 825.406 101.988 818.78 100.892C818.326 100.812 817.898 100.732 817.444 100.652C817.15 101.908 816.856 103.11 816.509 104.286C817.07 104.392 817.631 104.499 818.166 104.579C820.276 104.927 822.227 105.114 824.017 105.114C829.388 105.114 833.208 103.537 834.972 100.491C837.323 96.4302 835.613 90.5253 830.136 83.899C827.304 80.4523 823.616 76.9789 819.341 73.6657C818.246 72.8107 817.097 71.9824 815.948 71.1542C815.734 68.5624 815.414 66.0776 814.986 63.7263C814.799 62.6843 814.612 61.669 814.398 60.6804C815.921 60.2796 817.391 59.959 818.807 59.7185C825.433 58.623 830.269 59.478 831.739 62.0163C833.289 64.6882 831.391 69.5777 826.582 75.162C827.517 76.0704 828.372 76.9789 829.174 77.8606C829.521 77.4865 829.842 77.0857 830.136 76.7117C835.586 70.0854 837.323 64.1805 834.972 60.1193C832.621 56.058 826.662 54.5885 818.192 56.0046C814.265 56.6458 809.963 57.9016 805.501 59.6116C805.314 59.6918 805.154 59.7452 804.967 59.8254C803.47 60.4132 801.974 61.0544 800.478 61.7491C800.344 61.8026 800.211 61.8827 800.077 61.9362C797.726 60.8407 795.401 59.8521 793.157 59.0238C792.168 58.6497 791.18 58.3291 790.218 58.0085C792.703 49.0577 796.497 43.6605 800.05 43.6605C803.203 43.6605 806.57 47.9088 809.001 55.1229C810.23 54.7221 811.433 54.348 812.635 54.0007C809.616 45.3705 805.154 40 799.97 40C792.489 40 786.477 51.2753 784.447 67.7074ZM808.333 66.3448C808.28 66.2913 808.2 66.2646 808.146 66.2379C806.89 65.5165 805.608 64.8218 804.379 64.1538C804.486 64.1004 804.593 64.0469 804.699 64.0202C806.222 63.379 807.745 62.7912 809.215 62.2835C809.723 62.0965 810.23 61.9362 810.711 61.7758C810.925 62.7644 811.112 63.753 811.299 64.7951C811.513 65.9974 811.673 67.2265 811.833 68.4823C810.684 67.7609 809.509 67.0395 808.333 66.3448ZM788.641 64.9287C788.828 63.8332 789.015 62.7912 789.256 61.7758C790.244 62.0965 791.233 62.4171 792.248 62.8179C793.344 63.2187 794.466 63.6729 795.615 64.1538C794.359 64.8218 793.077 65.5165 791.821 66.2379C791.767 66.2646 791.714 66.2913 791.661 66.3448C790.458 67.0395 789.283 67.7609 788.134 68.4823C788.294 67.2532 788.454 66.0776 788.641 64.9287ZM793.691 91.22C792.783 90.7123 791.901 90.178 791.046 89.6436C789.87 88.9222 788.748 88.2008 787.653 87.4526C787.492 85.1815 787.412 82.8036 787.412 80.3454C787.412 79.0629 787.439 77.8071 787.492 76.5781C787.546 75.4292 787.599 74.3337 787.679 73.2382C789.577 71.9557 791.58 70.6999 793.691 69.4709C794.493 68.9899 795.321 68.5357 796.123 68.1082C797.405 67.4135 798.688 66.7723 799.97 66.131C802.027 67.1196 804.112 68.2418 806.249 69.4709C807.158 70.0052 808.039 70.5129 808.894 71.0473C810.07 71.7687 811.192 72.4901 812.288 73.2382C812.448 75.5093 812.528 77.8873 812.528 80.3454C812.528 81.6279 812.501 82.8837 812.448 84.1128C812.394 85.235 812.341 86.3572 812.261 87.4526C810.364 88.7351 808.36 89.9909 806.249 91.22C805.688 91.5406 805.154 91.8612 804.593 92.1552C803.176 92.9567 801.76 93.6781 800.371 94.3728C800.237 94.4263 800.104 94.5064 799.97 94.5598C797.886 93.5445 795.775 92.4223 793.691 91.22ZM780.492 82.0554C779.797 81.4943 779.156 80.9065 778.515 80.3454C779.397 79.5706 780.305 78.769 781.267 77.9942C782.069 77.3529 782.897 76.6849 783.779 76.0437C783.725 77.1125 783.698 78.2079 783.698 79.3034C783.698 79.6507 783.698 79.9981 783.698 80.3454C783.698 81.815 783.725 83.2311 783.779 84.6472C782.63 83.7922 781.507 82.9372 780.492 82.0554ZM816.269 81.4142C816.269 81.0668 816.269 80.7195 816.269 80.3454C816.269 78.8759 816.242 77.4598 816.188 76.0437C817.337 76.8987 818.433 77.7804 819.475 78.6354C820.143 79.1965 820.811 79.7843 821.425 80.3454C820.731 80.96 820.009 81.6012 819.261 82.2157C819.154 82.2959 819.047 82.4028 818.941 82.4829C818.059 83.2043 817.124 83.9525 816.162 84.6739C816.215 83.6051 816.269 82.5097 816.269 81.4142ZM788.668 95.8958C788.454 94.6934 788.294 93.4644 788.134 92.2086C789.283 92.93 790.432 93.6247 791.634 94.3194C791.687 94.3728 791.767 94.3995 791.821 94.4263C793.077 95.1477 794.332 95.8424 795.615 96.5103C795.615 96.5103 795.588 96.5103 795.588 96.537C794.252 97.0981 792.943 97.6058 791.661 98.0867C791.474 98.1669 791.287 98.2203 791.099 98.3005C790.485 98.5142 789.87 98.728 789.256 98.915C789.042 97.9531 788.855 96.9378 788.668 95.8958ZM807.719 97.873C806.596 97.4455 805.474 97.018 804.325 96.537C804.486 96.4569 804.646 96.3767 804.806 96.2966C805.902 95.7088 806.997 95.0942 808.119 94.4797C808.44 94.2927 808.761 94.1056 809.055 93.9186C809.99 93.3575 810.898 92.7964 811.807 92.2353C811.646 93.4377 811.486 94.64 811.299 95.7622C811.112 96.8577 810.898 97.8997 810.684 98.9417C809.723 98.5944 808.734 98.247 807.719 97.873ZM795.161 80.3454C795.161 77.7003 797.325 75.536 799.97 75.536C802.615 75.536 804.78 77.7003 804.78 80.3454C804.78 82.9906 802.615 85.1548 799.97 85.1548C797.325 85.1548 795.161 82.9906 795.161 80.3454Z" fill="url(#paint6_linear_429_355)"/>
<g filter="url(#filter6_bd_429_355)">
<rect x="450" y="184" width="160" height="160" rx="34" fill="white" fill-opacity="0.12" shape-rendering="crispEdges"/>
</g>
<path d="M550.491 233.472L536.302 254.528C535.321 255.962 537.208 257.698 538.566 256.491L552.528 244.34C552.906 244.038 553.434 244.264 553.434 244.792V282.755C553.434 283.283 552.755 283.509 552.453 283.132L510.189 232.566C508.83 230.906 506.868 230 504.679 230H503.17C499.245 230 496 233.245 496 237.245V290.679C496 294.679 499.245 297.925 503.245 297.925C505.736 297.925 508.075 296.642 509.434 294.453L523.623 273.396C524.604 271.962 522.717 270.226 521.358 271.434L507.396 283.509C507.019 283.811 506.491 283.585 506.491 283.057V245.17C506.491 244.642 507.17 244.415 507.472 244.792L549.736 295.358C551.094 297.019 553.132 297.925 555.245 297.925H556.755C560.755 297.925 564 294.679 564 290.679V237.245C564 233.245 560.755 230 556.755 230C554.189 230 551.849 231.283 550.491 233.472Z" fill="white"/>
<g filter="url(#filter7_b_429_355)">
<rect x="270" y="184" width="160" height="160" rx="34" fill="white" fill-opacity="0.12"/>
</g>
<path d="M350.001 244.436C356.854 244.436 362.409 241.205 362.409 237.218C362.409 233.232 356.854 230 350.001 230C343.149 230 337.594 233.232 337.594 237.218C337.594 241.205 343.149 244.436 350.001 244.436Z" fill="#E6007A"/>
<path d="M350.001 298.823C356.854 298.823 362.409 295.592 362.409 291.605C362.409 287.619 356.854 284.387 350.001 284.387C343.149 284.387 337.594 287.619 337.594 291.605C337.594 295.592 343.149 298.823 350.001 298.823Z" fill="#E6007A"/>
<path d="M332.711 254.428C336.137 248.492 336.115 242.063 332.661 240.069C329.207 238.074 323.63 241.269 320.204 247.205C316.778 253.141 316.8 259.57 320.253 261.564C323.707 263.559 329.284 260.364 332.711 254.428Z" fill="#E6007A"/>
<path d="M379.793 281.618C383.22 275.682 383.199 269.255 379.748 267.261C376.297 265.268 370.721 268.464 367.295 274.4C363.869 280.336 363.889 286.764 367.34 288.757C370.792 290.75 376.367 287.554 379.793 281.618Z" fill="#E6007A"/>
<path d="M332.663 288.755C336.117 286.761 336.139 280.332 332.713 274.396C329.286 268.46 323.709 265.265 320.255 267.26C316.802 269.254 316.779 275.683 320.206 281.619C323.632 287.555 329.209 290.75 332.663 288.755Z" fill="#E6007A"/>
<path d="M379.751 261.566C383.202 259.572 383.223 253.145 379.796 247.209C376.37 241.273 370.795 238.077 367.343 240.07C363.892 242.063 363.872 248.491 367.298 254.427C370.724 260.363 376.3 263.559 379.751 261.566Z" fill="#E6007A"/>
<g filter="url(#filter8_b_429_355)">
<rect x="630" y="184" width="160" height="160" rx="34" fill="white" fill-opacity="0.12"/>
</g>
<path d="M710 225L702.804 229.138L683.196 240.471L676 244.608V283.825L683.196 287.963L702.984 299.296L710.18 303.434L717.376 299.296L736.804 287.963L744 283.825V244.608L736.804 240.471L717.196 229.138L710 225ZM690.392 275.55V252.884L710 241.55L729.608 252.884V275.55L710 286.884L690.392 275.55Z" fill="#2A5ADA"/>
<g filter="url(#filter9_b_429_355)">
<rect x="90" y="184" width="160" height="160" rx="34" fill="white" fill-opacity="0.12"/>
</g>
<path d="M170 260.604C179.003 260.604 186.302 253.305 186.302 244.302C186.302 235.299 179.003 228 170 228C160.997 228 153.698 235.299 153.698 244.302C153.698 253.305 160.997 260.604 170 260.604Z" fill="#88BDF3"/>
<path d="M170 300C179.003 300 186.302 292.701 186.302 283.698C186.302 274.695 179.003 267.396 170 267.396C160.997 267.396 153.698 274.695 153.698 283.698C153.698 292.701 160.997 300 170 300Z" fill="#3075EE"/>
<path d="M189.698 280.302C198.701 280.302 206 273.003 206 264C206 254.997 198.701 247.698 189.698 247.698C180.695 247.698 173.396 254.997 173.396 264C173.396 273.003 180.695 280.302 189.698 280.302Z" fill="#5795F1"/>
<path d="M150.302 280.302C159.305 280.302 166.604 273.003 166.604 264C166.604 254.997 159.305 247.698 150.302 247.698C141.299 247.698 134 254.997 134 264C134 273.003 141.299 280.302 150.302 280.302Z" fill="#205FEC"/>
<path d="M166.163 260.162C163.257 259.455 160.601 257.963 158.487 255.849C156.373 253.734 154.88 251.079 154.174 248.173C157.074 248.891 159.724 250.386 161.837 252.499C163.95 254.612 165.445 257.261 166.163 260.162Z" fill="#134BEF"/>
<path d="M154.14 279.86C154.846 276.955 156.338 274.299 158.453 272.185C160.567 270.07 163.223 268.578 166.128 267.872C165.411 270.772 163.915 273.422 161.803 275.534C159.69 277.647 157.04 279.143 154.14 279.86Z" fill="#0932E8"/>
<path d="M173.838 267.838C176.744 268.544 179.399 270.037 181.513 272.151C183.628 274.266 185.12 276.921 185.827 279.827C182.926 279.109 180.276 277.614 178.164 275.501C176.051 273.388 174.555 270.738 173.838 267.838Z" fill="#164BEA"/>
<path d="M185.86 248.14C185.154 251.045 183.662 253.701 181.547 255.815C179.433 257.93 176.777 259.422 173.872 260.128C174.589 257.228 176.085 254.578 178.197 252.465C180.31 250.353 182.96 248.857 185.86 248.14Z" fill="#3170F1"/>
<g filter="url(#filter10_bd_429_355)">
<rect x="810" y="184" width="160" height="160" rx="34" fill="white" fill-opacity="0.12" shape-rendering="crispEdges"/>
</g>
<g clip-path="url(#clip2_429_355)">
<path d="M908.762 231C904.993 230.997 901.376 232.49 898.706 235.151C896.036 237.812 894.531 241.424 894.521 245.194V260.931C893.054 261.03 891.555 261.092 890 261.092C888.445 261.092 886.953 261.155 885.479 261.243V245.194C885.419 241.457 883.892 237.893 881.229 235.272C878.565 232.65 874.977 231.181 871.239 231.181C867.502 231.181 863.914 232.65 861.25 235.272C858.587 237.893 857.06 241.457 857 245.194V282.806C857.06 286.543 858.587 290.107 861.25 292.728C863.914 295.35 867.502 296.819 871.239 296.819C874.977 296.819 878.565 295.35 881.229 292.728C883.892 290.107 885.419 286.543 885.479 282.806V267.069C886.946 266.97 888.445 266.908 890 266.908C891.555 266.908 893.047 266.845 894.521 266.757V282.806C894.581 286.543 896.108 290.107 898.771 292.728C901.435 295.35 905.023 296.819 908.76 296.819C912.498 296.819 916.086 295.35 918.75 292.728C921.413 290.107 922.94 286.543 923 282.806V245.194C922.99 241.425 921.486 237.813 918.816 235.152C916.147 232.491 912.531 230.998 908.762 231ZM871.238 236.815C873.462 236.814 875.597 237.696 877.172 239.267C878.748 240.837 879.636 242.969 879.642 245.194V261.859C875.476 262.462 871.407 263.613 867.542 265.28C865.867 266.015 864.29 266.956 862.848 268.081V245.194C862.854 242.971 863.74 240.842 865.313 239.272C866.885 237.702 869.015 236.818 871.238 236.815ZM879.642 282.806C879.642 285.035 878.756 287.173 877.18 288.749C875.604 290.325 873.467 291.21 871.238 291.21C869.009 291.21 866.871 290.325 865.295 288.749C863.719 287.173 862.834 285.035 862.834 282.806V279.033C862.834 275.7 865.474 272.543 869.899 270.578C873.018 269.233 876.29 268.276 879.642 267.729V282.806ZM908.762 291.185C906.538 291.186 904.403 290.304 902.828 288.733C901.252 287.163 900.364 285.031 900.358 282.806V266.141C904.524 265.538 908.593 264.387 912.458 262.72C914.133 261.985 915.71 261.044 917.152 259.919V282.806C917.146 285.029 916.26 287.158 914.687 288.728C913.115 290.298 910.985 291.182 908.762 291.185ZM910.101 257.4C906.982 258.745 903.71 259.702 900.358 260.249V245.194C900.358 242.965 901.244 240.827 902.82 239.251C904.396 237.675 906.533 236.79 908.762 236.79C910.991 236.79 913.129 237.675 914.705 239.251C916.281 240.827 917.166 242.965 917.166 245.194V248.967C917.166 252.285 914.526 255.442 910.101 257.4Z" fill="url(#paint7_linear_429_355)"/>
</g>
<defs>
<filter id="filter0_b_429_355" x="-40" y="-40" width="240" height="240" filterUnits="userSpaceOnUse" color-interpolation-filters="sRGB">
<feFlood flood-opacity="0" result="BackgroundImageFix"/>
<feGaussianBlur in="BackgroundImageFix" stdDeviation="20"/>
<feComposite in2="SourceAlpha" operator="in" result="effect1_backgroundBlur_429_355"/>
<feBlend mode="normal" in="SourceGraphic" in2="effect1_backgroundBlur_429_355" result="shape"/>
</filter>
<filter id="filter1_b_429_355" x="140" y="-40" width="240" height="240" filterUnits="userSpaceOnUse" color-interpolation-filters="sRGB">
<feFlood flood-opacity="0" result="BackgroundImageFix"/>
<feGaussianBlur in="BackgroundImageFix" stdDeviation="20"/>
<feComposite in2="SourceAlpha" operator="in" result="effect1_backgroundBlur_429_355"/>
<feBlend mode="normal" in="SourceGraphic" in2="effect1_backgroundBlur_429_355" result="shape"/>
</filter>
<filter id="filter2_b_429_355" x="320" y="-40" width="240" height="240" filterUnits="userSpaceOnUse" color-interpolation-filters="sRGB">
<feFlood flood-opacity="0" result="BackgroundImageFix"/>
<feGaussianBlur in="BackgroundImageFix" stdDeviation="20"/>
<feComposite in2="SourceAlpha" operator="in" result="effect1_backgroundBlur_429_355"/>
<feBlend mode="normal" in="SourceGraphic" in2="effect1_backgroundBlur_429_355" result="shape"/>
</filter>
<filter id="filter3_b_429_355" x="500" y="-40" width="240" height="240" filterUnits="userSpaceOnUse" color-interpolation-filters="sRGB">
<feFlood flood-opacity="0" result="BackgroundImageFix"/>
<feGaussianBlur in="BackgroundImageFix" stdDeviation="20"/>
<feComposite in2="SourceAlpha" operator="in" result="effect1_backgroundBlur_429_355"/>
<feBlend mode="normal" in="SourceGraphic" in2="effect1_backgroundBlur_429_355" result="shape"/>
</filter>
<filter id="filter4_b_429_355" x="860" y="-40" width="240" height="240" filterUnits="userSpaceOnUse" color-interpolation-filters="sRGB">
<feFlood flood-opacity="0" result="BackgroundImageFix"/>
<feGaussianBlur in="BackgroundImageFix" stdDeviation="20"/>
<feComposite in2="SourceAlpha" operator="in" result="effect1_backgroundBlur_429_355"/>
<feBlend mode="normal" in="SourceGraphic" in2="effect1_backgroundBlur_429_355" result="shape"/>
</filter>
<filter id="filter5_b_429_355" x="680" y="-40" width="240" height="240" filterUnits="userSpaceOnUse" color-interpolation-filters="sRGB">
<feFlood flood-opacity="0" result="BackgroundImageFix"/>
<feGaussianBlur in="BackgroundImageFix" stdDeviation="20"/>
<feComposite in2="SourceAlpha" operator="in" result="effect1_backgroundBlur_429_355"/>
<feBlend mode="normal" in="SourceGraphic" in2="effect1_backgroundBlur_429_355" result="shape"/>
</filter>
<filter id="filter6_bd_429_355" x="410" y="144" width="240" height="240" filterUnits="userSpaceOnUse" color-interpolation-filters="sRGB">
<feFlood flood-opacity="0" result="BackgroundImageFix"/>
<feGaussianBlur in="BackgroundImageFix" stdDeviation="20"/>
<feComposite in2="SourceAlpha" operator="in" result="effect1_backgroundBlur_429_355"/>
<feColorMatrix in="SourceAlpha" type="matrix" values="0 0 0 0 0 0 0 0 0 0 0 0 0 0 0 0 0 0 127 0" result="hardAlpha"/>
<feOffset dy="-4"/>
<feGaussianBlur stdDeviation="3"/>
<feComposite in2="hardAlpha" operator="out"/>
<feColorMatrix type="matrix" values="0 0 0 0 0 0 0 0 0 0 0 0 0 0 0 0 0 0 0.25 0"/>
<feBlend mode="normal" in2="effect1_backgroundBlur_429_355" result="effect2_dropShadow_429_355"/>
<feBlend mode="normal" in="SourceGraphic" in2="effect2_dropShadow_429_355" result="shape"/>
</filter>
<filter id="filter7_b_429_355" x="230" y="144" width="240" height="240" filterUnits="userSpaceOnUse" color-interpolation-filters="sRGB">
<feFlood flood-opacity="0" result="BackgroundImageFix"/>
<feGaussianBlur in="BackgroundImageFix" stdDeviation="20"/>
<feComposite in2="SourceAlpha" operator="in" result="effect1_backgroundBlur_429_355"/>
<feBlend mode="normal" in="SourceGraphic" in2="effect1_backgroundBlur_429_355" result="shape"/>
</filter>
<filter id="filter8_b_429_355" x="590" y="144" width="240" height="240" filterUnits="userSpaceOnUse" color-interpolation-filters="sRGB">
<feFlood flood-opacity="0" result="BackgroundImageFix"/>
<feGaussianBlur in="BackgroundImageFix" stdDeviation="20"/>
<feComposite in2="SourceAlpha" operator="in" result="effect1_backgroundBlur_429_355"/>
<feBlend mode="normal" in="SourceGraphic" in2="effect1_backgroundBlur_429_355" result="shape"/>
</filter>
<filter id="filter9_b_429_355" x="50" y="144" width="240" height="240" filterUnits="userSpaceOnUse" color-interpolation-filters="sRGB">
<feFlood flood-opacity="0" result="BackgroundImageFix"/>
<feGaussianBlur in="BackgroundImageFix" stdDeviation="20"/>
<feComposite in2="SourceAlpha" operator="in" result="effect1_backgroundBlur_429_355"/>
<feBlend mode="normal" in="SourceGraphic" in2="effect1_backgroundBlur_429_355" result="shape"/>
</filter>
<filter id="filter10_bd_429_355" x="770" y="144" width="240" height="240" filterUnits="userSpaceOnUse" color-interpolation-filters="sRGB">
<feFlood flood-opacity="0" result="BackgroundImageFix"/>
<feGaussianBlur in="BackgroundImageFix" stdDeviation="20"/>
<feComposite in2="SourceAlpha" operator="in" result="effect1_backgroundBlur_429_355"/>
<feColorMatrix in="SourceAlpha" type="matrix" values="0 0 0 0 0 0 0 0 0 0 0 0 0 0 0 0 0 0 127 0" result="hardAlpha"/>
<feOffset dy="4"/>
<feGaussianBlur stdDeviation="3"/>
<feComposite in2="hardAlpha" operator="out"/>
<feColorMatrix type="matrix" values="0 0 0 0 0 0 0 0 0 0 0 0 0 0 0 0 0 0 0.38 0"/>
<feBlend mode="normal" in2="effect1_backgroundBlur_429_355" result="effect2_dropShadow_429_355"/>
<feBlend mode="normal" in="SourceGraphic" in2="effect2_dropShadow_429_355" result="shape"/>
</filter>
<linearGradient id="paint0_linear_429_355" x1="289.334" y1="45.2192" x2="249.566" y2="121.392" gradientUnits="userSpaceOnUse">
<stop stop-color="#00FFA3"/>
<stop offset="1" stop-color="#DC1FFF"/>
</linearGradient>
<linearGradient id="paint1_linear_429_355" x1="271.945" y1="36.1406" x2="232.177" y2="112.313" gradientUnits="userSpaceOnUse">
<stop stop-color="#00FFA3"/>
<stop offset="1" stop-color="#DC1FFF"/>
</linearGradient>
<linearGradient id="paint2_linear_429_355" x1="280.584" y1="40.651" x2="240.816" y2="116.824" gradientUnits="userSpaceOnUse">
<stop stop-color="#00FFA3"/>
<stop offset="1" stop-color="#DC1FFF"/>
</linearGradient>
<linearGradient id="paint3_linear_429_355" x1="980" y1="107.088" x2="980" y2="49.4306" gradientUnits="userSpaceOnUse">
<stop stop-color="#05AAC5"/>
<stop offset="1" stop-color="#71E0EC"/>
</linearGradient>
<linearGradient id="paint4_linear_429_355" x1="980.028" y1="114.259" x2="980.028" y2="44.7621" gradientUnits="userSpaceOnUse">
<stop stop-color="#05AAC5"/>
<stop offset="1" stop-color="#71E0EC"/>
</linearGradient>
<linearGradient id="paint5_linear_429_355" x1="980" y1="121.43" x2="980" y2="39.9965" gradientUnits="userSpaceOnUse">
<stop stop-color="#05AAC5"/>
<stop offset="1" stop-color="#71E0EC"/>
</linearGradient>
<linearGradient id="paint6_linear_429_355" x1="770.455" y1="79.051" x2="833.751" y2="81.8264" gradientUnits="userSpaceOnUse">
<stop stop-color="white"/>
<stop offset="1" stop-color="white"/>
</linearGradient>
<linearGradient id="paint7_linear_429_355" x1="861.18" y1="291.915" x2="918.443" y2="234.496" gradientUnits="userSpaceOnUse">
<stop stop-color="#00AEE9"/>
<stop offset="1" stop-color="#69FABD"/>
</linearGradient>
<clipPath id="clip0_429_355">
<rect width="72" height="72" fill="white" transform="translate(44 44)"/>
</clipPath>
<clipPath id="clip1_429_355">
<rect width="72" height="56.4305" fill="white" transform="translate(224 52)"/>
</clipPath>
<clipPath id="clip2_429_355">
<rect width="66" height="65.8203" fill="white" transform="translate(857 231)"/>
</clipPath>
</defs>
</svg>
